<svg width="74" height="77" viewBox="0 0 74 77" fill="none" xmlns="http://www.w3.org/2000/svg">
<rect y="-0.00805664" width="74" height="76.0809" rx="18.2536" fill="white"/>
<path d="M39.9022 22.8089C43.3704 22.8089 46.1085 23.7946 48.1164 25.766C50.1608 27.7374 51.183 30.5484 51.183 34.1991V53.2559H43.7355V36.6086C43.7355 34.0531 43.1696 32.173 42.0379 30.9683C40.9062 29.7635 39.4276 29.1611 37.6023 29.1611C35.4119 29.1611 33.6413 29.8548 32.2905 31.2421C30.9397 32.6293 30.2644 34.7102 30.2644 37.4848V53.2559H22.8169V23.466H30.2644V28.0659H30.4834C31.3231 26.5326 32.5643 25.2731 34.2071 24.2874C35.8865 23.3017 37.7848 22.8089 39.9022 22.8089Z" fill="#8ABC8B"/>
</svg>
