<svg width="128" height="56" viewBox="0 0 128 56" fill="none" xmlns="http://www.w3.org/2000/svg">
<path d="M23.488 21.376C25.008 21.376 26.208 21.808 27.088 22.672C27.984 23.536 28.432 24.768 28.432 26.368V34.72H25.168V27.424C25.168 26.304 24.92 25.48 24.424 24.952C23.928 24.424 23.28 24.16 22.48 24.16C21.52 24.16 20.744 24.464 20.152 25.072C19.56 25.68 19.264 26.592 19.264 27.808V34.72H16V21.664H19.264V23.68H19.36C19.728 23.008 20.272 22.456 20.992 22.024C21.728 21.592 22.56 21.376 23.488 21.376Z" fill="white"/>
<path d="M38.6554 40.768C37.4714 40.768 36.3114 40.536 35.1754 40.072C34.0554 39.624 33.1514 39.032 32.4634 38.296L34.5754 36.184C35.1674 36.712 35.7674 37.112 36.3754 37.384C36.9834 37.656 37.7274 37.792 38.6074 37.792C39.6634 37.792 40.4874 37.48 41.0794 36.856C41.6714 36.232 41.9674 35.488 41.9674 34.624V33.088H41.8714C41.6154 33.696 41.1514 34.168 40.4794 34.504C39.8234 34.84 39.0314 35.008 38.1034 35.008C36.9034 35.008 35.8234 34.712 34.8634 34.12C33.9034 33.528 33.1514 32.72 32.6074 31.696C32.0634 30.656 31.7914 29.512 31.7914 28.264C31.7914 26.92 32.0714 25.72 32.6314 24.664C33.1914 23.608 33.9594 22.792 34.9354 22.216C35.9274 21.624 37.0314 21.328 38.2474 21.328C39.0634 21.328 39.7674 21.456 40.3594 21.712C40.9674 21.952 41.4714 22.352 41.8714 22.912H41.9674V21.664H45.2314V34.72C45.2314 35.792 44.9754 36.784 44.4634 37.696C43.9514 38.624 43.1994 39.368 42.2074 39.928C41.2154 40.488 40.0314 40.768 38.6554 40.768ZM35.0554 28.144C35.0554 29.248 35.3754 30.168 36.0154 30.904C36.6554 31.624 37.5194 31.984 38.6074 31.984C39.6954 31.984 40.5594 31.624 41.1994 30.904C41.8394 30.168 42.1594 29.248 42.1594 28.144C42.1594 27.04 41.8394 26.128 41.1994 25.408C40.5594 24.672 39.6954 24.304 38.6074 24.304C37.5194 24.304 36.6554 24.672 36.0154 25.408C35.3754 26.128 35.0554 27.04 35.0554 28.144Z" fill="white"/>
<path d="M49.3488 16H52.6128V23.68H52.7088C53.0608 23.024 53.6128 22.48 54.3647 22.048C55.1328 21.6 55.9567 21.376 56.8368 21.376C58.3568 21.376 59.5568 21.808 60.4368 22.672C61.3328 23.536 61.7808 24.768 61.7808 26.368V34.72H58.5168V27.424C58.5168 26.304 58.2688 25.48 57.7728 24.952C57.2768 24.424 56.6287 24.16 55.8288 24.16C54.8688 24.16 54.0928 24.464 53.5008 25.072C52.9088 25.68 52.6128 26.592 52.6128 27.808V34.72H49.3488V16Z" fill="white"/>
<path d="M65.8122 21.664H69.0762V34.72H65.8122V21.664ZM65.5242 18.688C65.5242 18.16 65.7082 17.712 66.0762 17.344C66.4602 16.96 66.9162 16.768 67.4442 16.768C67.9722 16.768 68.4202 16.96 68.7882 17.344C69.1722 17.712 69.3642 18.16 69.3642 18.688C69.3642 19.216 69.1722 19.672 68.7882 20.056C68.4202 20.424 67.9722 20.608 67.4442 20.608C66.9162 20.608 66.4602 20.424 66.0762 20.056C65.7082 19.672 65.5242 19.216 65.5242 18.688Z" fill="white"/>
<path d="M73.0613 23.632C74.6293 22.096 76.5493 21.328 78.8213 21.328C80.6133 21.328 82.0373 21.784 83.0933 22.696C84.1493 23.608 84.6773 24.952 84.6773 26.728V34.72H81.4133V32.8H81.3173C80.7413 33.536 80.0933 34.088 79.3733 34.456C78.6533 34.824 77.8213 35.008 76.8773 35.008C76.0773 35.008 75.3413 34.848 74.6693 34.528C74.0133 34.192 73.4933 33.72 73.1093 33.112C72.7253 32.504 72.5333 31.792 72.5333 30.976C72.5333 29.744 73.0133 28.76 73.9733 28.024C74.9493 27.272 76.2693 26.896 77.9333 26.896H81.4133V26.56C81.4133 25.792 81.1413 25.208 80.5973 24.808C80.0533 24.408 79.3413 24.208 78.4613 24.208C77.1653 24.208 76.0213 24.672 75.0293 25.6L73.0613 23.632ZM75.8453 30.832C75.8453 31.248 76.0133 31.608 76.3493 31.912C76.7013 32.216 77.2373 32.368 77.9573 32.368C78.6613 32.368 79.2693 32.232 79.7813 31.96C80.3093 31.672 80.7093 31.304 80.9813 30.856C81.2693 30.392 81.4133 29.904 81.4133 29.392V29.296H77.8613C77.1253 29.296 76.6053 29.448 76.3013 29.752C75.9973 30.04 75.8453 30.4 75.8453 30.832Z" fill="white"/>
<path d="M94.4941 35.008C93.4221 35.008 92.4061 34.752 91.4461 34.24C90.4861 33.712 89.7021 32.936 89.0941 31.912C88.4861 30.888 88.1821 29.648 88.1821 28.192C88.1821 26.8 88.4781 25.6 89.0701 24.592C89.6621 23.568 90.4541 22.792 91.4461 22.264C92.4381 21.72 93.5341 21.448 94.7341 21.448C95.6781 21.448 96.5661 21.664 97.3981 22.096C98.2301 22.528 98.8781 23.072 99.3421 23.728H99.4381V16H101.31V34.72H99.4381V32.968H99.3421C98.8941 33.56 98.2301 34.048 97.3501 34.432C96.4701 34.816 95.5181 35.008 94.4941 35.008ZM90.1981 28.24C90.1981 29.184 90.3981 30.04 90.7981 30.808C91.1981 31.576 91.7501 32.184 92.4541 32.632C93.1741 33.08 93.9741 33.304 94.8541 33.304C95.7341 33.304 96.5261 33.08 97.2301 32.632C97.9341 32.184 98.4861 31.576 98.8861 30.808C99.2861 30.04 99.4861 29.184 99.4861 28.24C99.4861 27.296 99.2861 26.44 98.8861 25.672C98.4861 24.904 97.9341 24.296 97.2301 23.848C96.5261 23.4 95.7341 23.176 94.8541 23.176C93.9741 23.176 93.1741 23.4 92.4541 23.848C91.7501 24.296 91.1981 24.904 90.7981 25.672C90.3981 26.44 90.1981 27.296 90.1981 28.24Z" fill="white"/>
<path d="M109.233 34.72C107.441 34.72 106.545 33.824 106.545 32.032V23.32H105.537V21.784H106.545V18.808H108.441V21.784H112.185V23.32H108.441V31.36C108.441 32 108.553 32.432 108.777 32.656C109.017 32.88 109.377 32.992 109.857 32.992H112.185V34.72H109.233Z" fill="white"/>
<path d="M65.7187 16.75C65.2396 17.2292 65 17.8125 65 18.5C65 19.1875 65.2396 19.7812 65.7187 20.2812C66.2187 20.7604 66.8125 21 67.5 21C68.1875 21 68.7708 20.7604 69.25 20.2812C69.75 19.7812 70 19.1875 70 18.5C70 17.8125 69.75 17.2292 69.25 16.75C68.7708 16.25 68.1875 16 67.5 16C66.8125 16 66.2187 16.25 65.7187 16.75Z" fill="#42F0DE"/>
</svg>
