<svg width="129" height="58" viewBox="0 0 129 58" fill="none" xmlns="http://www.w3.org/2000/svg">
<path d="M23.488 21.992C25.008 21.992 26.208 22.424 27.088 23.288C27.984 24.152 28.432 25.384 28.432 26.984V35.336H25.168V28.04C25.168 26.92 24.92 26.096 24.424 25.568C23.928 25.04 23.28 24.776 22.48 24.776C21.52 24.776 20.744 25.08 20.152 25.688C19.56 26.296 19.264 27.208 19.264 28.424V35.336H16V22.28H19.264V24.296H19.36C19.728 23.624 20.272 23.072 20.992 22.64C21.728 22.208 22.56 21.992 23.488 21.992Z" fill="#4A4A4A"/>
<path d="M38.6554 41.384C37.4714 41.384 36.3114 41.152 35.1754 40.688C34.0554 40.24 33.1514 39.648 32.4634 38.912L34.5754 36.8C35.1674 37.328 35.7674 37.728 36.3754 38C36.9834 38.272 37.7274 38.408 38.6074 38.408C39.6634 38.408 40.4874 38.096 41.0794 37.472C41.6714 36.848 41.9674 36.104 41.9674 35.24V33.704H41.8714C41.6154 34.312 41.1514 34.784 40.4794 35.12C39.8234 35.456 39.0314 35.624 38.1034 35.624C36.9034 35.624 35.8234 35.328 34.8634 34.736C33.9034 34.144 33.1514 33.336 32.6074 32.312C32.0634 31.272 31.7914 30.128 31.7914 28.88C31.7914 27.536 32.0714 26.336 32.6314 25.28C33.1914 24.224 33.9594 23.408 34.9354 22.832C35.9274 22.24 37.0314 21.944 38.2474 21.944C39.0634 21.944 39.7674 22.072 40.3594 22.328C40.9674 22.568 41.4714 22.968 41.8714 23.528H41.9674V22.28H45.2314V35.336C45.2314 36.408 44.9754 37.4 44.4634 38.312C43.9514 39.24 43.1994 39.984 42.2074 40.544C41.2154 41.104 40.0314 41.384 38.6554 41.384ZM35.0554 28.76C35.0554 29.864 35.3754 30.784 36.0154 31.52C36.6554 32.24 37.5194 32.6 38.6074 32.6C39.6954 32.6 40.5594 32.24 41.1994 31.52C41.8394 30.784 42.1594 29.864 42.1594 28.76C42.1594 27.656 41.8394 26.744 41.1994 26.024C40.5594 25.288 39.6954 24.92 38.6074 24.92C37.5194 24.92 36.6554 25.288 36.0154 26.024C35.3754 26.744 35.0554 27.656 35.0554 28.76Z" fill="#4A4A4A"/>
<path d="M49.3488 16.616H52.6128V24.296H52.7088C53.0608 23.64 53.6128 23.096 54.3647 22.664C55.1328 22.216 55.9567 21.992 56.8368 21.992C58.3568 21.992 59.5568 22.424 60.4368 23.288C61.3328 24.152 61.7808 25.384 61.7808 26.984V35.336H58.5168V28.04C58.5168 26.92 58.2688 26.096 57.7728 25.568C57.2768 25.04 56.6287 24.776 55.8288 24.776C54.8688 24.776 54.0928 25.08 53.5008 25.688C52.9088 26.296 52.6128 27.208 52.6128 28.424V35.336H49.3488V16.616Z" fill="#4A4A4A"/>
<path d="M65.8122 22.28H69.0762V35.336H65.8122V22.28ZM65.5242 19.304C65.5242 18.776 65.7082 18.328 66.0762 17.96C66.4602 17.576 66.9162 17.384 67.4442 17.384C67.9722 17.384 68.4202 17.576 68.7882 17.96C69.1722 18.328 69.3642 18.776 69.3642 19.304C69.3642 19.832 69.1722 20.288 68.7882 20.672C68.4202 21.04 67.9722 21.224 67.4442 21.224C66.9162 21.224 66.4602 21.04 66.0762 20.672C65.7082 20.288 65.5242 19.832 65.5242 19.304Z" fill="#4A4A4A"/>
<path d="M73.0613 24.248C74.6293 22.712 76.5493 21.944 78.8213 21.944C80.6133 21.944 82.0373 22.4 83.0933 23.312C84.1493 24.224 84.6773 25.568 84.6773 27.344V35.336H81.4133V33.416H81.3173C80.7413 34.152 80.0933 34.704 79.3733 35.072C78.6533 35.44 77.8213 35.624 76.8773 35.624C76.0773 35.624 75.3413 35.464 74.6693 35.144C74.0133 34.808 73.4933 34.336 73.1093 33.728C72.7253 33.12 72.5333 32.408 72.5333 31.592C72.5333 30.36 73.0133 29.376 73.9733 28.64C74.9493 27.888 76.2693 27.512 77.9333 27.512H81.4133V27.176C81.4133 26.408 81.1413 25.824 80.5973 25.424C80.0533 25.024 79.3413 24.824 78.4613 24.824C77.1653 24.824 76.0213 25.288 75.0293 26.216L73.0613 24.248ZM75.8453 31.448C75.8453 31.864 76.0133 32.224 76.3493 32.528C76.7013 32.832 77.2373 32.984 77.9573 32.984C78.6613 32.984 79.2693 32.848 79.7813 32.576C80.3093 32.288 80.7093 31.92 80.9813 31.472C81.2693 31.008 81.4133 30.52 81.4133 30.008V29.912H77.8613C77.1253 29.912 76.6053 30.064 76.3013 30.368C75.9973 30.656 75.8453 31.016 75.8453 31.448Z" fill="#4A4A4A"/>
<path d="M94.4941 35.624C93.4221 35.624 92.4061 35.368 91.4461 34.856C90.4861 34.328 89.7021 33.552 89.0941 32.528C88.4861 31.504 88.1821 30.264 88.1821 28.808C88.1821 27.416 88.4781 26.216 89.0701 25.208C89.6621 24.184 90.4541 23.408 91.4461 22.88C92.4381 22.336 93.5341 22.064 94.7341 22.064C95.6781 22.064 96.5661 22.28 97.3981 22.712C98.2301 23.144 98.8781 23.688 99.3421 24.344H99.4381V16.616H101.31V35.336H99.4381V33.584H99.3421C98.8941 34.176 98.2301 34.664 97.3501 35.048C96.4701 35.432 95.5181 35.624 94.4941 35.624ZM90.1981 28.856C90.1981 29.8 90.3981 30.656 90.7981 31.424C91.1981 32.192 91.7501 32.8 92.4541 33.248C93.1741 33.696 93.9741 33.92 94.8541 33.92C95.7341 33.92 96.5261 33.696 97.2301 33.248C97.9341 32.8 98.4861 32.192 98.8861 31.424C99.2861 30.656 99.4861 29.8 99.4861 28.856C99.4861 27.912 99.2861 27.056 98.8861 26.288C98.4861 25.52 97.9341 24.912 97.2301 24.464C96.5261 24.016 95.7341 23.792 94.8541 23.792C93.9741 23.792 93.1741 24.016 92.4541 24.464C91.7501 24.912 91.1981 25.52 90.7981 26.288C90.3981 27.056 90.1981 27.912 90.1981 28.856Z" fill="#4A4A4A"/>
<path d="M109.233 35.336C107.441 35.336 106.545 34.44 106.545 32.648V23.936H105.537V22.4H106.545V19.424H108.441V22.4H112.185V23.936H108.441V31.976C108.441 32.616 108.553 33.048 108.777 33.272C109.017 33.496 109.377 33.608 109.857 33.608H112.185V35.336H109.233Z" fill="#4A4A4A"/>
<path d="M65.7187 17.366C65.2396 17.8452 65 18.4285 65 19.116C65 19.8035 65.2396 20.3972 65.7187 20.8972C66.2187 21.3764 66.8125 21.616 67.5 21.616C68.1875 21.616 68.7708 21.3764 69.25 20.8972C69.75 20.3972 70 19.8035 70 19.116C70 18.4285 69.75 17.8452 69.25 17.366C68.7708 16.866 68.1875 16.616 67.5 16.616C66.8125 16.616 66.2187 16.866 65.7187 17.366Z" fill="#4E7C58"/>
</svg>
